{"title":"Forrest Gump [Eng,Ger,Cze] [emandoz 1-gig rip]","uid":5048245,"size":1068800400,"categoryP":"video","categoryS":"movies","magnet":"?xt=urn:btih:9acca51d840a5fd2e3f6dedb28cb342a9e72fb36&amp;dn=Forrest+Gump+%5BEng%2CGer%2CCze%5D+%5Bemandoz+1-gig+rip%5D&amp;tr=udp%3A%2F%2Ftracker.openbittorrent.com%3A80&amp;tr=udp%3A%2F%2Fopen.demonii.com%3A1337&amp;tr=udp%3A%2F%2Ftracker.coppersurfer.tk%3A6969&amp;tr=udp%3A%2F%2Fexodus.desync.com%3A6969","seeders":1,"leechers":0,"uploader":"emandoz","files":4,"time":1249756673,"description":"emandoz presents:\n\nForrest Gump [Eng,Ger,Cze] [emandoz 1-gig rip]\n\n\n\nForrest Gump\nAudio: English, German, Czech\nSubs included\nSource: PAL DVD\n\n--------------------------------------------------------------------\nForrest Gump (1994)\n\nVideo\nID                               : 1\nFormat                           : AVC\nFormat/Info                      : Advanced Video Codec\nFormat profile                   : &lt;a class=&quot;__cf_email__&quot; href=&quot;/cdn-cgi/l/email-protection&quot; data-cfemail=&quot;e6ae8f818ea6aad5c8d6&quot;&gt;[email&amp;#160;protected]&lt;/a&gt;&lt;script cf-hash='f9e31' type=&quot;text/javascript&quot;&gt;\n/* &lt;![CDATA[ */!function(){try{var t=&quot;currentScript&quot;in document?document.currentScript:function(){for(var t=document.getElementsByTagName(&quot;script&quot;),e=t.length;e--;)if(t[e].getAttribute(&quot;cf-hash&quot;))return t[e]}();if(t&amp;&amp;t.previousSibling){var e,r,n,i,c=t.previousSibling,a=c.getAttribute(&quot;data-cfemail&quot;);if(a){for(e=&quot;&quot;,r=parseInt(a.substr(0,2),16),n=2;a.length-n;n+=2)i=parseInt(a.substr(n,2),16)^r,e+=String.fromCharCode(i);e=document.createTextNode(e),c.parentNode.replaceChild(e,c)}}}catch(u){}}();/* ]]&gt; */&lt;/script&gt;\nFormat settings, CABAC           : Yes\nFormat settings, ReFrames        : 5 frames\nMuxing mode                      : Container profile=&lt;a class=&quot;__cf_email__&quot; href=&quot;/cdn-cgi/l/email-protection&quot; data-cfemail=&quot;affac1c4c1c0d8c1ef9c819f&quot;&gt;[email&amp;#160;protected]&lt;/a&gt;&lt;script cf-hash='f9e31' type=&quot;text/javascript&quot;&gt;\n/* &lt;![CDATA[ */!function(){try{var t=&quot;currentScript&quot;in document?document.currentScript:function(){for(var t=document.getElementsByTagName(&quot;script&quot;),e=t.length;e--;)if(t[e].getAttribute(&quot;cf-hash&quot;))return t[e]}();if(t&amp;&amp;t.previousSibling){var e,r,n,i,c=t.previousSibling,a=c.getAttribute(&quot;data-cfemail&quot;);if(a){for(e=&quot;&quot;,r=parseInt(a.substr(0,2),16),n=2;a.length-n;n+=2)i=parseInt(a.substr(n,2),16)^r,e+=String.fromCharCode(i);e=document.createTextNode(e),c.parentNode.replaceChild(e,c)}}}catch(u){}}();/* ]]&gt; */&lt;/script&gt;\nCodec ID                         : V_MPEG4/ISO/AVC\nDuration                         : 2h 16mn\nNominal bit rate                 : 548 Kbps\nWidth                            : 718 pixels\nHeight                           : 422 pixels\nDisplay aspect ratio             : 2.419\nOriginal display aspect ratio    : 2.420\nFrame rate                       : 25.000 fps\nResolution                       : 24 bits\nColorimetry                      : 4:2:0\nScan type                        : Progressive\nBits/(Pixel*Frame)               : 0.072\nWriting library                  : x264 core 65\nEncoding settings                : cabac=1 / ref=5 / deblock=1:0:0 / analyse=0x3:0x133 / me=umh / subme=9 / psy_rd=1.0:1.0 / mixed_ref=1 / me_range=16 / chroma_me=1 / trellis=2 / 8x8dct=1 / cqm=0 / deadzone=21,11 / chroma_qp_offset=-4 / threads=1 / nr=0 / decimate=1 / mbaff=0 / bframes=6 / b_pyramid=1 / b_adapt=1 / b_bias=0 / direct=3 / wpredb=1 / keyint=250 / keyint_min=25 / scenecut=40 / rc=2pass / bitrate=548 / ratetol=1.0 / qcomp=0.60 / qpmin=10 / qpmax=51 / qpstep=4 / cplxblur=20.0 / qblur=0.5 / ip_ratio=1.40 / pb_ratio=1.30 / aq=1:1.00\n\nAudio #1\nID                               : 2\nFormat                           : AAC\nFormat/Info                      : Advanced Audio Codec\nFormat version                   : Version 4\nFormat profile                   : LC\nFormat settings, SBR             : No\nCodec ID                         : A_AAC\nDuration                         : 2h 16mn\nChannel(s)                       : 6 channels\nChannel positions                : Front: L C R, Rear: L R, LFE\nSampling rate                    : 48.0 KHz\nResolution                       : 16 bits\nLanguage                         : English\nBitrate                          : 256 kbps\n\nAudio #2\nID                               : 3\nFormat                           : MPEG Audio\nFormat version                   : Version 1\nFormat profile                   : Layer 3\nCodec ID                         : A_MPEG/L3\nCodec ID/Hint                    : MP3\nDuration                         : 2h 16mn\nBit rate mode                    : Constant\nBit rate                         : 128 Kbps\nChannel(s)                       : 2 channels, Dolby Surround ProLogic II\nSampling rate                    : 48.0 KHz\nResolution                       : 16 bits\nStream size                      : 125 MiB (12%)\nWriting library                  : LAME3.98\nLanguage                         : German\n\nAudio #3\nID                               : 4\nFormat                           : Vorbis\nFormat settings, Floor           : 1\nCodec ID                         : A_VORBIS\nDuration                         : 2h 16mn\nBit rate mode                    : Constant\nBit rate                         : 86.0 Kbps\nChannel(s)                       : 2 channels, Dolby Surround ProLogic II\nSampling rate                    : 48.0 KHz\nStream size                      : 83.8 MiB (8%)\nWriting library                  : aoTuV Beta 5 (UTC 2006-10-24)\nLanguage                         : Czech\n\nSubs\nGerman, English for the hearing impaired, English, Polish, Czech, Turkish, Hungarian, English commentary, German commentary\n--------------------------------------------------------------------\n\n","torrent":{"xt":"urn:btih:9acca51d840a5fd2e3f6dedb28cb342a9e72fb36","amp;dn":"Forrest+Gump+%5BEng%2CGer%2CCze%5D+%5Bemandoz+1-gig+rip%5D","amp;tr":["udp%3A%2F%2Ftracker.openbittorrent.com%3A80","udp%3A%2F%2Fopen.demonii.com%3A1337","udp%3A%2F%2Ftracker.coppersurfer.tk%3A6969","udp%3A%2F%2Fexodus.desync.com%3A6969"],"infoHash":"9acca51d840a5fd2e3f6dedb28cb342a9e72fb36","infoHashBuffer":{"type":"Buffer","data":[154,204,165,29,132,10,95,210,227,246,222,219,40,203,52,42,158,114,251,54]},"announce":[],"urlList":[]}}